<svg width="132" height="141" viewBox="0 0 132 141" fill="none" xmlns="http://www.w3.org/2000/svg">
<path d="M7.44105 85.7896C8.22833 85.7765 9.01417 85.8608 9.78011 86.0404C9.84881 85.6545 9.88383 85.2634 9.88478 84.8716C9.88547 84.4916 9.85043 84.1123 9.78011 83.7386C8.90835 83.5309 8.0149 83.4241 7.11795 83.4207C3.3454 83.4207 0.4375 85.5433 0.4375 90.3127V108.561C0.911441 108.652 1.39276 108.7 1.87553 108.705C2.39272 108.696 2.90845 108.648 3.41822 108.561V93.64H9.78922C9.85775 93.2314 9.89276 92.8181 9.89389 92.404C9.89457 92.024 9.85953 91.6447 9.78922 91.271H3.41822V90.1738C3.41822 87.1331 4.85624 85.7896 7.44105 85.7896Z" fill="#CD092F"/>
<path d="M24.401 91.2705V106.017C23.2089 106.3 21.9867 106.441 20.7604 106.438C17.4157 106.438 15.6591 104.647 15.6591 100.818V91.2705C15.1851 91.1802 14.7038 91.1322 14.2211 91.1272C13.7022 91.1325 13.1846 91.1804 12.6738 91.2705V100.926C12.6738 106.156 15.4771 108.807 20.5784 108.807C22.8882 108.775 25.1834 108.442 27.4045 107.818V91.2705C26.9198 91.1801 26.4279 91.1321 25.9346 91.1272C25.4202 91.1311 24.907 91.179 24.401 91.2705Z" fill="#CD092F"/>
<path d="M38.4487 90.9888C36.1148 91.0181 33.7951 91.3509 31.5498 91.9785V108.548C32.0238 108.638 32.5051 108.686 32.9878 108.691C33.5067 108.686 34.0243 108.638 34.5351 108.548V93.7698C35.7565 93.4675 37.0117 93.317 38.2712 93.3219C41.6478 93.3219 43.4454 95.1132 43.4454 98.9779V108.561C43.9193 108.652 44.4006 108.7 44.8834 108.705C45.4008 108.699 45.9168 108.651 46.4261 108.561V98.9108C46.4261 93.6757 43.55 90.9888 38.4487 90.9888Z" fill="#CD092F"/>
<path d="M61.5897 85.7896V91.3426C60.5462 91.0986 59.4766 90.9798 58.4042 90.9888C53.1936 90.9888 49.7578 94.5267 49.7578 100.183C49.7578 105.839 53.1117 108.844 58.2312 108.844C60.3984 108.822 62.5486 108.464 64.6022 107.782V83.1743C63.7224 83.4961 62.8982 83.9492 62.1585 84.5178C61.7725 84.8274 61.5609 85.3004 61.5897 85.7896ZM61.5897 106.018C60.5238 106.308 59.4236 106.459 58.3177 106.466C54.7636 106.466 52.7522 104.132 52.7522 100.196C52.7522 95.6328 55.0275 93.3713 58.5361 93.3713C59.5653 93.357 60.592 93.4759 61.5897 93.7251V106.018Z" fill="#CD092F"/>
<path d="M74.0228 90.9888C72.4522 90.9862 70.8897 91.2111 69.3856 91.6561C69.3135 92.0174 69.2785 92.385 69.281 92.7532C69.2789 93.1556 69.314 93.5573 69.3856 93.9534C70.8589 93.5457 72.3832 93.3437 73.9136 93.3533C76.7896 93.3533 78.4051 94.661 78.4051 97.5942V98.266C77.3355 98.1121 76.2551 98.0418 75.1741 98.0555C70.6826 98.0555 67.9521 99.999 67.9521 103.322C67.9521 107.142 70.8965 108.839 74.9557 108.839C77.072 108.826 79.1762 108.525 81.2084 107.943V97.9883C81.2084 93.0757 78.3687 90.9888 74.0228 90.9888ZM78.4051 106.192C77.2936 106.416 76.1629 106.534 75.0285 106.546C72.2253 106.546 70.7144 105.377 70.7144 103.259C70.7144 101.065 72.2981 100.183 75.388 100.183C76.3969 100.159 77.406 100.218 78.4051 100.357V106.192Z" fill="#CD092F"/>
<path d="M93.062 106.403C89.2576 106.403 87.6011 103.931 87.6011 99.8644C87.6011 95.7982 89.2894 93.3934 93.0301 93.3934C94.3162 93.4021 95.5871 93.6672 96.7663 94.1726C96.8357 93.7747 96.8707 93.3717 96.8709 92.9679C96.8739 92.5878 96.8388 92.2083 96.7663 91.835C95.4188 91.2533 93.9597 90.9645 92.4886 90.9886C87.5647 90.9886 84.584 94.5936 84.584 99.9003C84.584 104.992 87.0277 108.315 91.5193 108.772C91.9525 109.291 92.1933 109.94 92.2019 110.612C92.2019 111.674 91.4465 112.345 90.2633 112.345C89.3837 112.346 88.5138 112.165 87.7103 111.812C87.6629 112.14 87.6385 112.471 87.6375 112.802C87.6396 113.123 87.664 113.443 87.7103 113.76C88.629 114.151 89.6221 114.344 90.6228 114.325C92.8117 114.325 94.4317 113.156 94.4317 111.038C94.4138 110.214 94.123 109.418 93.6035 108.772C94.7919 108.724 95.9611 108.461 97.0529 107.997C97.127 107.612 97.1636 107.22 97.1622 106.828C97.1637 106.448 97.1271 106.068 97.0529 105.695C95.7715 106.146 94.4229 106.385 93.062 106.403Z" fill="#CD092F"/>
<path d="M105.457 90.9888C103.888 90.9865 102.327 91.2114 100.825 91.6561C100.749 92.0169 100.712 92.3847 100.716 92.7532C100.713 93.1558 100.749 93.5577 100.825 93.9534C102.298 93.5451 103.822 93.3431 105.353 93.3533C108.224 93.3533 109.844 94.661 109.844 97.5942V98.2659C108.773 98.112 107.691 98.0416 106.609 98.0555C102.117 98.0555 99.3867 99.999 99.3867 103.322C99.3867 107.142 102.336 108.839 106.395 108.839C108.511 108.826 110.615 108.524 112.647 107.943V97.9883C112.647 93.0757 109.808 90.9888 105.457 90.9888ZM109.844 106.192C108.731 106.416 107.599 106.534 106.463 106.546C103.664 106.546 102.154 105.377 102.154 103.259C102.154 101.06 103.737 100.165 106.823 100.165C107.833 100.142 108.844 100.2 109.844 100.339V106.192Z" fill="#CD092F"/>
<path d="M104.093 87.2756C104.756 87.3097 105.405 87.4774 106 87.7682C106.723 88.1367 107.52 88.3431 108.334 88.3728C109.359 88.3515 110.347 87.9902 111.138 87.3473C111.181 87.0071 111.206 86.6647 111.21 86.3218C111.207 85.9907 111.183 85.6602 111.138 85.3321C110.334 85.9472 109.352 86.2939 108.334 86.3218C107.542 86.301 106.765 86.1067 106.059 85.753C105.447 85.4347 104.771 85.2542 104.079 85.2246C103.056 85.2552 102.074 85.628 101.294 86.2815C101.22 86.6063 101.184 86.9383 101.185 87.2712C101.179 87.6043 101.216 87.9368 101.294 88.2609C102.093 87.6415 103.076 87.2956 104.093 87.2756Z" fill="#CD092F"/>
<path d="M123.783 90.9888C119.005 90.9888 116.024 94.2758 116.024 99.9453C116.024 105.534 118.969 108.857 123.761 108.857C128.612 108.857 131.561 105.498 131.561 99.9453C131.547 94.24 128.707 90.9888 123.783 90.9888ZM123.761 106.475C120.671 106.475 119.055 104.141 119.055 99.9318C119.055 95.6551 120.744 93.3578 123.797 93.3578C126.923 93.3578 128.539 95.5969 128.539 99.9318C128.525 104.195 126.873 106.475 123.761 106.475Z" fill="#CD092F"/>
<path d="M8.85648 122.074C7.61605 122.057 6.38657 122.304 5.25147 122.797V114.326C3.81302 114.827 2.46446 115.549 1.25616 116.465C0.703615 116.861 0.396189 117.508 0.441983 118.179V139.093C1.72199 139.626 4.31978 140.084 6.80426 140.084C13.0994 140.084 16.6918 136.305 16.6918 130.85C16.6918 125.394 14.1318 122.074 8.85648 122.074ZM7.07285 136.231C6.45941 136.26 5.84508 136.196 5.25147 136.041V126.542C6.12551 126.149 7.08223 125.966 8.04231 126.01C10.4471 126.01 11.7271 127.662 11.7271 130.738C11.7271 133.98 10.2036 136.231 7.07285 136.231Z" fill="#CD092F"/>
<path d="M28.9451 122.227C26.6537 122.227 25.3359 123.102 24.0979 124.667C23.9899 123.902 23.8072 123.148 23.5523 122.417C22.905 122.266 22.2402 122.202 21.5756 122.227C20.9242 122.221 20.2741 122.285 19.6367 122.417V139.704C20.4288 139.855 21.2352 139.918 22.0415 139.894C22.8471 139.899 23.6517 139.836 24.4462 139.704V131.271C24.4462 127.914 26.2298 126.117 28.643 126.117C29.1744 126.104 29.7061 126.13 30.2335 126.196C30.5097 124.94 30.5354 123.644 30.3091 122.379C29.8609 122.283 29.4039 122.232 28.9451 122.227Z" fill="#CD092F"/>
<path d="M59.3473 118.179V122.342C58.5238 122.143 57.677 122.053 56.8292 122.074C51.5161 122.074 47.9111 125.584 47.9111 131.193C47.9111 136.917 51.4406 140.084 56.9467 140.084C59.3917 140.113 61.8257 139.757 64.1568 139.031V114.326C62.7116 114.823 61.357 115.545 60.1447 116.465C59.5985 116.865 59.2977 117.511 59.3473 118.179ZM59.3473 135.963C58.68 136.156 57.9863 136.246 57.2909 136.231C54.1097 136.231 52.8717 134.166 52.8717 131.193C52.8717 127.889 54.1307 125.853 57.2531 125.853C57.9618 125.842 58.6684 125.931 59.3515 126.117L59.3473 135.963Z" fill="#CD092F"/>
<path d="M37.8253 121.996C36.0741 121.965 34.3263 122.158 32.6255 122.57C32.3381 123.801 32.3381 125.08 32.6255 126.311C34.076 125.957 35.5673 125.791 37.0615 125.816C39.5418 125.816 40.7463 126.811 40.7463 128.831V129.025C40.0076 128.946 39.1179 128.872 38.4968 128.872C34.384 128.872 30.8545 130.321 30.8545 134.212C30.8545 138.602 34.0356 140.089 38.6521 140.089C40.9289 140.065 43.1904 139.719 45.3669 139.06V129.169C45.3459 124.44 42.7481 122.099 37.8253 121.996ZM40.7337 136.194C40.0541 136.309 39.3666 136.372 38.6773 136.384C36.4656 136.384 35.2653 135.736 35.2653 134.208C35.2653 132.68 36.4656 132.073 38.6773 132.073C39.4117 132.073 40.2678 132.147 40.7337 132.184V136.194Z" fill="#CD092F"/>
<path d="M108.709 136.194C106.304 136.194 104.718 134.323 104.718 131.04C104.718 127.914 105.977 125.89 108.751 125.89C109.803 125.882 110.845 126.09 111.81 126.501C112.167 125.305 112.747 124.185 113.518 123.197C111.858 122.347 110 121.939 108.13 122.012C102.817 122.012 99.7363 125.729 99.7363 131.056C99.7363 136.591 102.875 140.101 108.306 140.101C110.134 140.161 111.948 139.767 113.581 138.957C112.782 137.969 112.164 136.85 111.756 135.653C110.797 136.065 109.754 136.251 108.709 136.194Z" fill="#CD092F"/>
<path d="M122.168 121.995C116.775 121.995 113.749 125.621 113.749 131.081C113.749 136.615 116.93 140.088 122.168 140.088C127.594 140.088 130.62 136.541 130.62 131.081C130.62 125.621 127.594 121.995 122.168 121.995ZM122.168 136.268C119.49 136.268 118.676 134.133 118.676 131.077C118.676 128.103 119.49 125.811 122.168 125.811C124.921 125.811 125.693 128.025 125.693 131.077C125.693 134.286 124.803 136.268 122.168 136.268Z" fill="#CD092F"/>
<path d="M75.2519 121.995C70.0563 121.995 66.8584 125.431 66.8584 131.155C66.8584 136.879 70.2158 140.084 76.0115 140.084C77.9882 140.084 80.1201 139.741 81.4673 139.093C81.7359 137.886 81.7359 136.637 81.4673 135.43C79.8622 135.927 78.1933 136.197 76.5109 136.231C73.8376 136.231 71.9742 135.24 71.5881 132.452H82.5207C82.6683 131.659 82.733 130.854 82.7137 130.048C82.7263 124.898 79.7802 121.995 75.2519 121.995ZM71.6007 128.979C71.9491 126.881 73.2291 125.621 75.168 125.621C77.3377 125.621 78.1896 127.071 78.2694 128.979H71.6007Z" fill="#CD092F"/>
<path d="M93.7432 129.437L91.8043 128.636C90.6796 128.178 90.0207 127.81 90.0207 127.071C90.0207 125.964 91.0279 125.737 92.3457 125.737C93.8874 125.738 95.419 125.982 96.8824 126.46C97.1176 125.288 97.1176 124.083 96.8824 122.912C95.7199 122.301 93.5459 121.995 91.649 121.995C87.9265 121.995 85.0937 123.982 85.0937 126.951C85.0937 129.619 86.2562 130.957 89.5129 132.254L91.0279 132.865C92.459 133.443 92.8787 133.79 92.8787 134.703C92.8787 136.078 91.4853 136.305 90.3228 136.305C88.5151 136.285 86.7267 135.936 85.0475 135.277C84.7342 136.497 84.7342 137.774 85.0475 138.994C86.6381 139.82 88.8246 140.101 91.095 140.101C94.7798 140.101 97.726 138.193 97.726 134.757C97.7343 131.919 96.4963 130.581 93.7432 129.437Z" fill="#CD092F"/>
<path d="M63.5841 16.4931C58.9778 16.5096 54.3808 16.9001 49.8399 17.6606C54.805 11.4309 62.4108 7.80092 70.4562 7.8213C76.4561 7.83931 82.2742 9.84957 86.9686 13.5266C87.7148 14.1434 88.2968 14.1948 88.8713 13.6368C89.4459 13.0787 89.3936 12.5207 88.7594 11.7937C82.1211 3.98803 71.7713 0.236534 61.5738 1.93978C51.3763 3.64302 42.8639 10.545 39.2146 20.069C35.7698 21.0888 32.4416 22.4569 29.2832 24.1515C28.4774 24.5995 28.1864 25.1575 28.4774 25.8257C28.6157 26.1258 28.8696 26.3595 29.1831 26.4752C29.4966 26.5909 29.8441 26.5791 30.1488 26.4425C32.6932 25.7082 35.2898 25.0988 37.9983 24.5407C37.7006 25.9762 37.5482 27.4372 37.5432 28.9023C37.4113 38.6733 42.4352 47.8134 50.8173 53.0526C51.6306 53.5592 52.3096 53.5592 52.7872 52.9424C53.0183 52.6772 53.1193 52.3253 53.0632 51.9803C53.0072 51.6353 52.7998 51.3319 52.4962 51.1508C47.3305 46.4797 44.3957 39.8885 44.4078 32.9849C44.3924 29.6558 45.081 26.3601 46.4299 23.3071C49.1459 23.0869 52.0932 22.918 55.3241 22.918C76.3433 22.918 94.072 29.7394 94.072 38.6828C94.072 43.2133 88.2371 47.7438 81.3426 50.7543C79.6712 51.4886 79.4996 51.9805 79.7309 52.7075C79.9622 53.4344 80.7084 53.6033 81.5739 53.3242C93.699 49.4106 102.884 42.9857 102.884 35.2097C102.847 24.6509 85.5211 16.4931 63.5841 16.4931Z" fill="#CD092F"/>
<path d="M72.0667 46.8033L65.8438 50.3278V71.3134H72.4995C73.1176 71.3134 73.6187 70.8203 73.6187 70.212V47.5963C73.6303 47.2295 73.4272 46.8886 73.0962 46.7195C72.7652 46.5503 72.3649 46.5829 72.0667 46.8033Z" fill="#CD092F"/>
<path d="M59.101 54.9691V70.6239C59.101 71.0294 59.435 71.3581 59.8471 71.3581H64.1226V51.3271L59.8546 53.7356C59.3819 53.9685 59.0883 54.4491 59.101 54.9691Z" fill="#CD092F"/>
</svg>
