<svg width="187" height="145" viewBox="0 0 187 145" fill="none" xmlns="http://www.w3.org/2000/svg">
<path d="M93.8697 126.779C47.7785 126.779 17.0078 103.019 17.0078 72.6379C17.0078 42.2567 47.7785 18.4971 93.8697 18.4971C139.961 18.4971 170.732 42.2567 170.732 72.6379C170.732 103.019 139.961 126.779 93.8697 126.779Z" fill="white"/>
<mask id="mask0_247_186" style="mask-type:luminance" maskUnits="userSpaceOnUse" x="0" y="0" width="188" height="145">
<path d="M0 134.826C0 140.349 4.47715 144.826 10 144.826H178C183.523 144.826 188 140.349 188 134.826V10.7097C188 5.18689 183.523 0.709717 178 0.709717H10C4.47715 0.709717 0 5.18687 0 10.7097V134.826Z" fill="white"/>
</mask>
<g mask="url(#mask0_247_186)">
<path d="M93.7403 0.709732C85.1712 0.969406 83.743 6.2926 73.8756 8.11029C65.5663 9.40863 59.5939 5.25394 51.9337 7.72079C44.7928 10.3175 42.9751 16.939 36.0939 21.6131C29.4723 25.7677 20.3839 25.5081 15.8397 30.7014C10.906 36.6738 12.5939 43.8147 9.60769 52.3838C6.232 60.9528 -0.129883 64.0689 -0.129883 72.6379C-0.129883 81.4666 6.232 84.323 9.60769 93.0219C12.5939 101.591 10.7762 108.342 15.8397 114.704C21.1629 120.157 28.4337 119.119 36.0939 123.663C43.1049 128.337 44.7928 134.958 51.9337 137.685C60.1132 140.152 64.6574 135.867 73.8756 137.166C83.2237 138.724 85.1712 144.306 93.7403 144.696C93.8268 144.696 93.9161 144.694 94.0026 144.69C102.582 144.252 103.918 138.974 113.735 137.166C122.563 135.867 127.887 140.152 135.807 137.685C142.947 134.958 144.635 128.337 151.646 123.663C159.047 119.248 166.058 120.417 171.771 114.704C176.834 108.472 175.146 101.201 178.133 92.8921C181.249 84.5827 187.74 81.4666 187.74 72.6379C187.74 63.939 181.508 60.9528 178.003 52.3838C175.017 43.4252 176.704 36.4142 171.641 30.5716C166.318 25.1186 158.528 25.8976 151.646 21.7429C144.505 16.939 142.818 10.3175 135.807 7.72079C127.887 5.25394 122.823 9.40863 113.865 8.11029C104.127 6.42244 102.439 0.969406 93.8701 0.709732H93.7403ZM93.8701 126.779C47.779 126.779 17.0082 103.019 17.0082 72.6379C17.0082 42.2567 47.779 18.497 93.8701 18.497C139.961 18.497 170.732 42.2567 170.732 72.6379C170.732 103.019 139.961 126.779 93.8701 126.779Z" fill="#9D0E1C"/>
</g>
<path d="M153.464 95.2291C153.426 95.2291 151.429 95.1243 151.392 95.1178C149.882 94.8494 149.338 94.1358 148.8 92.5338C148.793 92.5136 148.79 92.5061 148.781 92.4869C148.475 91.8471 141.712 72.5777 136.845 58.6159C134.576 52.1496 132.605 46.6746 131.797 44.1827C131.606 43.5946 131.451 42.8963 130.888 42.6419C130.703 42.5582 130.484 42.5164 130.223 42.5164C123.602 42.5164 123.602 42.5164 123.602 42.5164C123.602 42.5164 123.602 42.5164 123.602 42.5164C123.306 42.5164 123.011 42.6005 122.787 42.7686C122.443 43.0275 122.343 43.5116 122.177 43.9093C109.452 74.4008 104.67 85.8611 102.872 90.1685C102.673 90.6462 100.422 94.5828 99.9721 94.8396C99.3229 95.0993 98.1544 95.0993 97.6351 95.0993C97.5052 95.0993 97.5052 95.0993 97.5052 95.0993C97.4864 95.0993 97.2675 95.1262 97.2492 95.1308C97.1983 95.1435 97.154 95.1546 97.1154 95.1643C97.0777 95.1737 96.6279 95.2458 96.5897 95.253C96.1018 95.3452 95.8174 95.6941 95.8174 96.138C95.8174 99.3838 95.8174 99.3838 95.8174 99.3838C95.8174 99.3838 95.8174 99.3838 95.8174 99.3838C95.8174 100.033 96.2069 100.422 96.8561 100.422C112.956 100.422 112.956 100.422 112.956 100.422C112.956 100.422 112.956 100.422 112.956 100.422C113.475 100.422 113.994 100.033 113.994 99.3838C113.994 96.138 113.994 96.138 113.994 96.138C113.994 96.138 113.994 96.138 113.994 96.138C113.994 95.6186 113.475 95.2291 112.956 95.2291C112.851 95.2216 112.752 95.2146 112.659 95.208C111.65 95.1359 110.612 95.183 109.616 95.0025C108.819 94.8578 108.281 94.5062 108.281 93.6711C108.281 93.1518 108.411 92.5026 108.801 91.7236C108.941 91.3727 109.082 91.0241 109.222 90.6773C110.813 86.737 114.642 84.0634 118.891 84.0634C121.301 84.0634 123.21 84.0634 124.721 84.0634C128.189 84.0634 131.589 87.1111 132.555 90.4408C132.812 91.3266 132.864 91.3843 133.135 92.2657C133.168 92.3713 133.199 92.4755 133.227 92.5751C133.311 92.87 133.348 93.1776 133.42 93.4754C133.472 93.6895 133.463 93.9132 133.4 94.1242C133.196 94.803 132.671 95.0993 131.652 95.0993C131.179 95.1308 130.821 95.1546 130.55 95.1727C130.469 95.1781 128.983 95.4313 128.925 95.4888C128.795 95.6186 128.665 95.8783 128.665 96.138C128.665 96.2678 128.665 96.2678 128.665 96.2678C128.665 99.3838 128.665 99.3838 128.665 99.3838L128.925 100.163C129.185 100.293 129.444 100.422 129.704 100.422C153.464 100.422 153.464 100.422 153.464 100.422C154.113 100.422 154.502 100.033 154.502 99.3838C154.502 96.138 154.502 96.138 154.502 96.138C154.502 96.138 154.502 96.138 154.502 96.138C154.502 95.6186 154.113 95.2291 153.464 95.2291ZM129.315 79.5192C125.38 79.5192 122.423 79.5192 120.2 79.5192C116.133 79.5192 114.482 77.0433 116.016 73.2762C122.563 57.1877 122.563 57.1877 122.563 57.1877" fill="#313C72"/>
<path d="M79.3282 83.8037C76.0823 83.8037 76.0823 83.8037 76.0823 83.8037C75.563 83.8037 75.1735 84.0634 75.0436 84.7126C74.1348 90.4253 72.1873 95.6186 63.6182 95.6186C58.1652 95.6186 55.0492 91.9833 53.3613 86.7899C51.6735 81.7264 51.4138 75.1048 51.4138 69.522C51.4138 65.7568 51.9331 60.1739 53.7508 55.4999C55.5685 50.9557 58.5547 47.3203 63.2287 47.3203C71.0188 47.3203 73.226 51.475 74.5243 58.2264C74.6541 58.8755 74.9138 59.1352 75.563 59.1352C78.8088 59.1352 78.8088 59.1352 78.8088 59.1352C79.458 59.1352 79.8475 58.7457 79.8475 58.0965C79.8475 43.5551 79.8475 43.5551 79.8475 43.5551C79.8475 42.9059 79.458 42.5164 78.8088 42.5164C75.4331 42.5164 75.4331 42.5164 75.4331 42.5164L74.5243 43.2954C74.005 44.2043 73.7453 44.5938 72.7066 44.5938C72.0574 44.5938 71.6679 44.4639 70.8889 44.0744C70.6293 43.9446 70.3696 43.8148 70.1099 43.6849C68.2923 42.9059 65.6956 42.1269 61.1514 42.1269C53.3613 42.1269 46.8696 45.1131 42.3254 50.1767C37.6514 55.37 35.0547 62.7706 35.0547 71.5993C35.0547 78.6104 37.132 85.8811 41.4166 91.4639C45.7011 97.0468 52.3226 100.812 61.1514 100.812C66.2149 100.812 69.3309 100.033 71.4083 99.3838C72.4469 99.1242 73.226 98.8645 73.8751 98.8645C74.3945 98.8645 74.784 99.1242 75.0436 99.7733C75.3033 100.293 75.563 100.423 75.9525 100.423C79.3282 100.423 79.3282 100.423 79.3282 100.423L80.3668 99.3838C80.3668 84.8424 80.3668 84.8424 80.3668 84.8424C80.3668 84.1932 79.8475 83.8037 79.3282 83.8037Z" fill="#313C72"/>
<path d="M108.281 64.3285C108.152 64.1987 107.892 64.0689 107.632 64.0689H107.502C100.751 64.0689 100.751 64.0689 100.751 64.0689C100.47 64.0689 100.264 64.1833 100.115 64.3295C99.888 64.551 99.8054 64.8736 99.7205 65.179C99.5051 65.9535 99.2342 66.7281 98.9012 67.5026C98.1537 69.2407 95.8259 69.2476 94.7414 67.6973C93.7964 66.3465 94.3469 64.5179 95.7275 63.6171C98.1429 62.0411 99.3228 60.2812 99.3228 58.2263C99.3228 54.3313 96.2068 51.7346 91.6626 51.7346C87.2483 51.8644 82.8339 54.0716 82.8339 59.265C82.8339 61.9337 82.0289 65.0798 80.0894 66.9129C78.5016 68.4137 77.3809 70.3712 77.3809 72.6379C77.3809 72.7678 77.3809 72.7678 77.3809 72.7678C77.3809 77.7015 81.6654 81.0771 87.6378 81.0771C87.7676 81.0771 87.7676 81.0771 87.7676 81.0771C88.5459 81.0771 89.4517 81.0043 90.4168 80.8107C93.5214 80.188 97.3249 80.428 100.491 80.428C100.751 80.428 100.881 80.428 100.881 80.428C100.881 80.428 100.881 80.428 100.881 80.428C103.607 80.428 103.607 80.428 103.607 80.428C104.257 80.428 104.386 80.0385 104.516 79.7788C104.911 78.9331 105.134 78.4546 105.26 78.1839C105.367 77.9548 105.425 77.6946 105.425 77.4418C105.425 77.2755 105.365 77.1056 105.219 77.0247C105.036 76.9225 104.871 76.9225 104.776 76.9225C104.776 76.9225 104.776 76.9225 104.646 76.9225C103.348 76.9225 103.348 76.9225 103.348 76.9225L99.5825 74.8451C100.784 73.5231 101.319 72.9799 102.009 71.9796C102.124 71.8142 102.249 71.657 102.36 71.4898C102.489 71.2976 102.63 71.1107 102.754 70.9156C103.245 70.1426 103.86 69.2109 104.125 68.811C104.213 68.6788 104.297 68.5443 104.38 68.4096C104.707 67.8834 104.977 67.5744 105.555 67.5744C106.464 67.5744 106.464 67.5744 106.464 67.5744C106.464 67.5744 106.464 67.5744 106.464 67.5744C106.853 67.5744 107.243 67.3147 107.373 66.9252C107.646 66.2875 107.823 65.8735 107.938 65.6047C107.987 65.4919 108.281 64.7109 108.281 64.5882C108.281 64.5882 108.281 64.4584 108.281 64.3285ZM85.8024 67.7802C86.2836 67.3292 87.033 67.482 87.4156 68.0193C88.4912 69.5297 89.3532 70.7402 90.044 71.7102C90.4752 72.3158 89.4199 77.7015 88.6764 77.7015C85.5604 77.7015 83.6129 75.7539 83.6129 72.5081C83.6129 70.8047 84.4859 69.014 85.8024 67.7802ZM93.6777 58.3946C93.265 61.3657 88.8063 60.5768 88.8063 57.5772C88.8063 56.149 89.7151 54.591 91.5328 54.591C93.0908 54.591 93.74 56.0191 93.74 57.4473C93.74 57.7773 93.7197 58.0928 93.6777 58.3946Z" fill="#313C72"/>
</svg>
