<svg width="60" height="60" viewBox="0 0 60 60" fill="none" xmlns="http://www.w3.org/2000/svg">
<path d="M33.75 26.25C33.75 28.2391 32.9598 30.1468 31.5533 31.5533C30.1468 32.9598 28.2391 33.75 26.25 33.75C24.2609 33.75 22.3532 32.9598 20.9467 31.5533C19.5402 30.1468 18.75 28.2391 18.75 26.25C18.75 24.2609 19.5402 22.3532 20.9467 20.9467C22.3532 19.5402 24.2609 18.75 26.25 18.75C28.2391 18.75 30.1468 19.5402 31.5533 20.9467C32.9598 22.3532 33.75 24.2609 33.75 26.25ZM30 26.25C30 25.2554 29.6049 24.3016 28.9016 23.5984C28.1984 22.8951 27.2446 22.5 26.25 22.5C25.2554 22.5 24.3016 22.8951 23.5984 23.5984C22.8951 24.3016 22.5 25.2554 22.5 26.25C22.5 27.2446 22.8951 28.1984 23.5984 28.9016C24.3016 29.6049 25.2554 30 26.25 30C27.2446 30 28.1984 29.6049 28.9016 28.9016C29.6049 28.1984 30 27.2446 30 26.25ZM3.75 15.9375C3.75 13.35 5.85 11.25 8.4375 11.25H44.0625C46.65 11.25 48.75 13.35 48.75 15.9375V36.5625C48.75 39.15 46.65 41.25 44.0625 41.25H8.4375C5.85 41.25 3.75 39.15 3.75 36.5625V15.9375ZM8.4375 15C8.18886 15 7.9504 15.0988 7.77459 15.2746C7.59877 15.4504 7.5 15.6889 7.5 15.9375V18.75H9.375C9.87228 18.75 10.3492 18.5525 10.7008 18.2008C11.0525 17.8492 11.25 17.3723 11.25 16.875V15H8.4375ZM7.5 36.5625C7.5 37.08 7.92 37.5 8.4375 37.5H11.25V35.625C11.25 35.1277 11.0525 34.6508 10.7008 34.2992C10.3492 33.9475 9.87228 33.75 9.375 33.75H7.5V36.5625ZM15 35.625V37.5H37.5V35.625C37.5 34.1332 38.0926 32.7024 39.1475 31.6475C40.2024 30.5926 41.6332 30 43.125 30H45V22.5H43.125C41.6332 22.5 40.2024 21.9074 39.1475 20.8525C38.0926 19.7976 37.5 18.3668 37.5 16.875V15H15V16.875C15 18.3668 14.4074 19.7976 13.3525 20.8525C12.2976 21.9074 10.8668 22.5 9.375 22.5H7.5V30H9.375C10.8668 30 12.2976 30.5926 13.3525 31.6475C14.4074 32.7024 15 34.1332 15 35.625ZM41.25 37.5H44.0625C44.3111 37.5 44.5496 37.4012 44.7254 37.2254C44.9012 37.0496 45 36.8111 45 36.5625V33.75H43.125C42.6277 33.75 42.1508 33.9475 41.7992 34.2992C41.4475 34.6508 41.25 35.1277 41.25 35.625V37.5ZM45 18.75V15.9375C45 15.6889 44.9012 15.4504 44.7254 15.2746C44.5496 15.0988 44.3111 15 44.0625 15H41.25V16.875C41.25 17.3723 41.4475 17.8492 41.7992 18.2008C42.1508 18.5525 42.6277 18.75 43.125 18.75H45ZM16.875 48.75C15.6871 48.7505 14.5295 48.3748 13.5682 47.6769C12.6069 46.979 11.8912 45.9947 11.5237 44.865C12.0437 44.955 12.5775 45 13.125 45H44.0625C46.3003 45 48.4464 44.111 50.0287 42.5287C51.611 40.9464 52.5 38.8003 52.5 36.5625V19.0688C53.5972 19.4567 54.547 20.1753 55.2186 21.1257C55.8903 22.076 56.2506 23.2113 56.25 24.375V36.5625C56.25 38.163 55.9348 39.7478 55.3223 41.2265C54.7098 42.7051 53.8121 44.0486 52.6804 45.1804C51.5486 46.3121 50.2051 47.2098 48.7265 47.8223C47.2478 48.4348 45.663 48.75 44.0625 48.75H16.875Z" fill="white"/>
</svg>
