<svg width="60" height="60" viewBox="0 0 60 60" fill="none" xmlns="http://www.w3.org/2000/svg">
<g clip-path="url(#clip0_247_127)">
<path fill-rule="evenodd" clip-rule="evenodd" d="M30 10C24.6957 10 19.6086 12.1071 15.8579 15.8579C12.1071 19.6086 10 24.6957 10 30C10 35.3043 12.1071 40.3914 15.8579 44.1421C19.6086 47.8929 24.6957 50 30 50C35.3043 50 40.3914 47.8929 44.1421 44.1421C47.8929 40.3914 50 35.3043 50 30C50 24.6957 47.8929 19.6086 44.1421 15.8579C40.3914 12.1071 35.3043 10 30 10ZM5 30C5 16.1925 16.1925 5 30 5C43.8075 5 55 16.1925 55 30C55 43.8075 43.8075 55 30 55C16.1925 55 5 43.8075 5 30ZM21.25 25C20.7625 25 20.14 25.31 19.735 26.12C19.4349 26.7075 18.9148 27.1525 18.2879 27.3581C17.6611 27.5638 16.9784 27.5133 16.3886 27.2178C15.7989 26.9222 15.3498 26.4055 15.1393 25.7803C14.9289 25.1551 14.974 24.472 15.265 23.88C16.355 21.7 18.5325 20 21.25 20C23.9675 20 26.1425 21.7 27.235 23.88C27.526 24.472 27.5711 25.1551 27.3607 25.7803C27.1502 26.4055 26.7011 26.9222 26.1114 27.2178C25.5216 27.5133 24.8389 27.5638 24.2121 27.3581C23.5853 27.1525 23.0651 26.7075 22.765 26.12C22.36 25.31 21.74 25 21.25 25ZM38.75 25C38.2625 25 37.64 25.31 37.235 26.12C37.0895 26.4161 36.8868 26.6805 36.6386 26.8979C36.3904 27.1153 36.1016 27.2814 35.789 27.3867C35.4763 27.4919 35.1458 27.5343 34.8167 27.5112C34.4876 27.4882 34.1663 27.4002 33.8713 27.2524C33.5763 27.1046 33.3135 26.8998 33.0981 26.65C32.8826 26.4001 32.7187 26.1101 32.6159 25.7966C32.513 25.4831 32.4733 25.1523 32.4989 24.8234C32.5245 24.4944 32.6149 24.1738 32.765 23.88C33.8575 21.7 36.0325 20 38.75 20C41.4675 20 43.6425 21.7 44.735 23.88C45.026 24.472 45.0711 25.1551 44.8607 25.7803C44.6502 26.4055 44.2011 26.9222 43.6114 27.2178C43.0216 27.5133 42.3389 27.5638 41.7121 27.3581C41.0852 27.1525 40.5651 26.7075 40.265 26.12C39.86 25.31 39.24 25 38.75 25ZM21.51 35.845C21.7273 35.5987 21.991 35.3976 22.286 35.2532C22.581 35.1088 22.9016 35.024 23.2294 35.0035C23.5572 34.9831 23.8859 35.0275 24.1965 35.1341C24.5072 35.2407 24.7938 35.4075 25.04 35.625C26.365 36.795 28.0975 37.5 30 37.5C31.9025 37.5 33.6375 36.795 34.96 35.625C35.4573 35.1861 36.1086 34.9627 36.7706 35.0039C37.4326 35.0452 38.0511 35.3477 38.49 35.845C38.9289 36.3423 39.1523 36.9936 39.1111 37.6556C39.0698 38.3176 38.7673 38.9361 38.27 39.375C35.9885 41.3933 33.0461 42.5051 30 42.5C26.9539 42.5051 24.0115 41.3933 21.73 39.375C21.4837 39.1577 21.2826 38.8941 21.1382 38.599C20.9938 38.304 20.909 37.9834 20.8885 37.6556C20.8681 37.3278 20.9125 36.9991 21.0191 36.6885C21.1257 36.3778 21.2925 36.0912 21.51 35.845Z" fill="white"/>
</g>
<defs>
<clipPath id="clip0_247_127">
<rect width="60" height="60" fill="white"/>
</clipPath>
</defs>
</svg>
