<svg width="51" height="52" viewBox="0 0 51 52" fill="none" xmlns="http://www.w3.org/2000/svg">
<path d="M40.375 6.875C41.5022 6.875 42.5832 7.32277 43.3802 8.1198C44.1772 8.91683 44.625 9.99783 44.625 11.125V40.875C44.625 42.0022 44.1772 43.0832 43.3802 43.8802C42.5832 44.6772 41.5022 45.125 40.375 45.125H10.625C9.49783 45.125 8.41683 44.6772 7.6198 43.8802C6.82277 43.0832 6.375 42.0022 6.375 40.875V11.125C6.375 9.99783 6.82277 8.91683 7.6198 8.1198C8.41683 7.32277 9.49783 6.875 10.625 6.875H40.375ZM39.3125 39.8125V28.55C39.3125 26.7127 38.5826 24.9507 37.2835 23.6515C35.9843 22.3524 34.2223 21.6225 32.385 21.6225C30.5787 21.6225 28.475 22.7275 27.455 24.385V22.0262H21.5262V39.8125H27.455V29.3363C27.455 27.7 28.7725 26.3612 30.4088 26.3612C31.1978 26.3612 31.9545 26.6747 32.5124 27.2326C33.0703 27.7905 33.3838 28.5472 33.3838 29.3363V39.8125H39.3125ZM14.62 18.69C15.5668 18.69 16.4749 18.3139 17.1444 17.6444C17.8139 16.9749 18.19 16.0668 18.19 15.12C18.19 13.1438 16.5963 11.5287 14.62 11.5287C13.6675 11.5287 12.7541 11.9071 12.0806 12.5806C11.4071 13.2541 11.0287 14.1675 11.0287 15.12C11.0287 17.0963 12.6438 18.69 14.62 18.69ZM17.5738 39.8125V22.0262H11.6875V39.8125H17.5738Z" fill="white"/>
</svg>
