<svg width="51" height="52" viewBox="0 0 51 52" fill="none" xmlns="http://www.w3.org/2000/svg">
<path d="M16.575 4.75H34.425C41.225 4.75 46.75 10.275 46.75 17.075V34.925C46.75 38.1938 45.4515 41.3287 43.1401 43.6401C40.8287 45.9515 37.6938 47.25 34.425 47.25H16.575C9.775 47.25 4.25 41.725 4.25 34.925V17.075C4.25 13.8062 5.54852 10.6713 7.85991 8.35991C10.1713 6.04852 13.3062 4.75 16.575 4.75ZM16.15 9C14.1211 9 12.1753 9.80598 10.7406 11.2406C9.30598 12.6753 8.5 14.6211 8.5 16.65V35.35C8.5 39.5788 11.9212 43 16.15 43H34.85C36.8789 43 38.8247 42.194 40.2594 40.7594C41.694 39.3247 42.5 37.3789 42.5 35.35V16.65C42.5 12.4212 39.0788 9 34.85 9H16.15ZM36.6562 12.1875C37.3607 12.1875 38.0364 12.4674 38.5345 12.9655C39.0326 13.4636 39.3125 14.1393 39.3125 14.8438C39.3125 15.5482 39.0326 16.2239 38.5345 16.722C38.0364 17.2201 37.3607 17.5 36.6562 17.5C35.9518 17.5 35.2761 17.2201 34.778 16.722C34.2799 16.2239 34 15.5482 34 14.8438C34 14.1393 34.2799 13.4636 34.778 12.9655C35.2761 12.4674 35.9518 12.1875 36.6562 12.1875ZM25.5 15.375C28.3179 15.375 31.0204 16.4944 33.013 18.487C35.0056 20.4796 36.125 23.1821 36.125 26C36.125 28.8179 35.0056 31.5204 33.013 33.513C31.0204 35.5056 28.3179 36.625 25.5 36.625C22.6821 36.625 19.9796 35.5056 17.987 33.513C15.9944 31.5204 14.875 28.8179 14.875 26C14.875 23.1821 15.9944 20.4796 17.987 18.487C19.9796 16.4944 22.6821 15.375 25.5 15.375ZM25.5 19.625C23.8092 19.625 22.1877 20.2966 20.9922 21.4922C19.7966 22.6877 19.125 24.3092 19.125 26C19.125 27.6908 19.7966 29.3123 20.9922 30.5078C22.1877 31.7034 23.8092 32.375 25.5 32.375C27.1908 32.375 28.8123 31.7034 30.0078 30.5078C31.2034 29.3123 31.875 27.6908 31.875 26C31.875 24.3092 31.2034 22.6877 30.0078 21.4922C28.8123 20.2966 27.1908 19.625 25.5 19.625Z" fill="white"/>
</svg>
