<svg width="51" height="52" viewBox="0 0 51 52" fill="none" xmlns="http://www.w3.org/2000/svg">
<g clip-path="url(#clip0_74_638)">
<path d="M25.5 4.75C37.2364 4.75 46.75 14.2636 46.75 26C46.75 37.7364 37.2364 47.25 25.5 47.25C21.8831 47.2553 18.3253 46.3335 15.1661 44.5725L14.518 44.1943L8.07499 46.0898C7.72437 46.1931 7.35317 46.2051 6.99658 46.1248C6.64 46.0444 6.30984 45.8744 6.0374 45.6307C5.76497 45.387 5.55929 45.0777 5.43987 44.7323C5.32044 44.3868 5.29122 44.0165 5.35499 43.6566L5.41024 43.425L7.30574 36.982C5.30178 33.6698 4.24484 29.8713 4.24999 26C4.24999 14.2636 13.7636 4.75 25.5 4.75ZM25.5 9C22.4562 8.99945 19.4681 9.81612 16.8477 11.3647C14.2273 12.9133 12.0707 15.1371 10.6032 17.8038C9.13572 20.4704 8.41109 23.4822 8.505 26.5245C8.59891 29.5669 9.50792 32.5282 11.1371 35.0992C11.5579 35.7622 11.7385 36.5782 11.5961 37.3879L11.5132 37.7342L10.5761 40.9239L13.7657 39.9868C14.6859 39.7148 15.6421 39.8805 16.4007 40.3629C18.6284 41.7734 21.1537 42.6465 23.7769 42.9129C26.4001 43.1794 29.0494 42.8321 31.5152 41.8984C33.9811 40.9646 36.196 39.4701 37.9847 37.533C39.7735 35.5958 41.0872 33.2691 41.8219 30.7368C42.5565 28.2045 42.6921 25.5361 42.2179 22.9424C41.7436 20.3486 40.6726 17.9008 39.0893 15.7923C37.5061 13.6838 35.4541 11.9725 33.0956 10.7937C30.7371 9.61483 28.1367 9.00075 25.5 9ZM19.3417 15.766C19.577 15.6641 19.8347 15.6252 20.0896 15.6532C20.3444 15.6811 20.5876 15.7749 20.7952 15.9254C21.8662 16.7074 22.7162 17.7571 23.4472 18.7814L24.1421 19.7886L24.4672 20.2668C24.6548 20.541 24.7469 20.8695 24.7292 21.2013C24.7116 21.5331 24.5851 21.8499 24.3695 22.1028L24.2101 22.2642L22.2466 23.722C22.1521 23.7904 22.0856 23.8908 22.0594 24.0045C22.0333 24.1182 22.0492 24.2375 22.1042 24.3404C22.5505 25.1479 23.3389 26.3528 24.2441 27.258C25.1515 28.1632 26.4116 29.0048 27.2744 29.4999C27.4614 29.6061 27.6866 29.5721 27.8396 29.434L27.9204 29.3384L29.1975 27.394C29.4319 27.0817 29.7782 26.8722 30.1637 26.8096C30.5492 26.7471 30.9439 26.8361 31.2651 27.0583L32.419 27.8636C33.5665 28.6817 34.6694 29.5615 35.5427 30.6771C35.7051 30.8864 35.8084 31.1354 35.8416 31.3982C35.8749 31.661 35.837 31.9279 35.7319 32.171C34.8904 34.1345 32.759 35.8069 30.5447 35.7261L30.2069 35.7049L29.801 35.6666C29.7244 35.6575 29.6479 35.6476 29.5715 35.6369L29.0657 35.5519C27.1022 35.1821 23.9551 34.0686 20.6932 30.8089C17.4335 27.547 16.32 24.3999 15.9502 22.4364L15.8652 21.9306L15.8121 21.4886L15.7845 21.1167C15.7811 21.0637 15.7783 21.0105 15.776 20.9574C15.6952 18.7389 17.3761 16.6075 19.3417 15.766Z" fill="white"/>
</g>
<defs>
<clipPath id="clip0_74_638">
<rect width="51" height="51" fill="white" transform="translate(0 0.5)"/>
</clipPath>
</defs>
</svg>
