<svg width="90" height="90" viewBox="0 0 90 90" fill="none" xmlns="http://www.w3.org/2000/svg">
<g clip-path="url(#clip0_247_241)">
<path d="M71.0928 90.0225L50.2728 69.2025L54.2516 65.2237L75.0716 86.0437L71.0928 90.0225ZM18.9828 90.0225L15.0003 86.0437L41.0928 59.9512L29.9553 48.8888L27.9078 50.9362L24.3528 47.31V54.06L22.3053 56.1075L12.4766 46.2787L14.5241 44.2312H21.2741L17.6703 40.695L25.7891 32.5763C26.6541 31.7113 27.6016 31.0687 28.6316 30.6487C29.6591 30.2312 30.7553 30.0225 31.9203 30.0225C33.0828 30.0225 34.1791 30.2312 35.2091 30.6487C36.2391 31.0662 37.1853 31.7088 38.0478 32.5763L31.8753 38.7487L35.9853 42.8587L33.9378 44.9062L45.0753 55.9687L54.6641 46.3762C54.0766 45.5462 53.6691 44.6962 53.4416 43.8263C53.2141 42.9563 53.1003 42.0012 53.1003 40.9612C53.1003 37.8987 54.1616 35.3062 56.2841 33.1837C58.4066 31.0612 60.9991 30 64.0616 30C64.7116 30 65.3366 30.0463 65.9366 30.1388C66.5416 30.2288 67.1378 30.4137 67.7253 30.6937L59.9591 38.46L66.5628 45.0637L74.3291 37.3012C74.6216 37.8862 74.8103 38.48 74.8953 39.0825C74.9803 39.6875 75.0228 40.3137 75.0228 40.9612C75.0228 44.0237 73.9603 46.6162 71.8353 48.7388C69.7153 50.8637 67.1241 51.9262 64.0616 51.9262C63.0216 51.9262 62.0666 51.815 61.1966 51.5925C60.3266 51.37 59.4766 50.9587 58.6466 50.3587L18.9828 90.0225Z" fill="#313C72"/>
</g>
<defs>
<clipPath id="clip0_247_241">
<rect width="90" height="90" fill="white"/>
</clipPath>
</defs>
</svg>
