<svg width="90" height="90" viewBox="0 0 90 90" fill="none" xmlns="http://www.w3.org/2000/svg">
<path d="M39.375 46.6594L32.0906 39.375L28.125 43.3406L39.375 54.5906L61.875 32.0906L57.9094 28.125L39.375 46.6594Z" fill="#313C72"/>
<path d="M45 84.375L27.63 75.1134C22.6777 72.4795 18.5364 68.5464 15.6506 63.7366C12.7647 58.9267 11.2434 53.4217 11.25 47.8125V11.25C11.25 9.75816 11.8427 8.32742 12.8975 7.27252C13.9524 6.21763 15.3832 5.625 16.875 5.625H73.125C74.6169 5.625 76.0476 6.21763 77.1025 7.27252C78.1574 8.32742 78.75 9.75816 78.75 11.25V47.8125C78.7566 53.4217 77.2353 58.9267 74.3495 63.7366C71.4637 68.5464 67.3223 72.4795 62.37 75.1134L45 84.375ZM16.875 11.25V47.8125C16.8719 52.4016 18.1178 56.9051 20.4792 60.8401C22.8406 64.775 26.2284 67.9931 30.2794 70.1494L45 77.9991L59.7206 70.1522C63.7721 67.9957 67.1602 64.7772 69.5216 60.8417C71.883 56.9062 73.1287 52.4021 73.125 47.8125V11.25H16.875Z" fill="#313C72"/>
</svg>
