<svg width="60" height="61" viewBox="0 0 60 61" fill="none" xmlns="http://www.w3.org/2000/svg">
<path d="M29.9999 18V23M29.9949 5.5C22.4749 5.5 17.5999 10.5475 11.8349 12.3875C9.48993 13.1375 8.31743 13.51 7.84243 14.0375C7.36743 14.5625 7.22993 15.335 6.95243 16.875C3.97743 33.365 10.4774 48.61 25.9774 54.545C27.6399 55.1825 28.4724 55.5 30.0024 55.5C31.5324 55.5 32.3674 55.18 34.0324 54.5425C49.5299 48.61 56.0224 33.365 53.0474 16.875C52.7699 15.335 52.6299 14.5625 52.1549 14.035C51.6799 13.5075 50.5099 13.135 48.1649 12.3875C42.3974 10.5475 37.5149 5.5 29.9949 5.5Z" stroke="white" stroke-width="7" stroke-linecap="round" stroke-linejoin="round"/>
</svg>
