<svg width="90" height="90" viewBox="0 0 90 90" fill="none" xmlns="http://www.w3.org/2000/svg">
<path d="M81.5625 78.75H73.125V11.25H75.9375C76.6834 11.25 77.3988 10.9537 77.9262 10.4262C78.4537 9.89879 78.75 9.18342 78.75 8.4375C78.75 7.69158 78.4537 6.97621 77.9262 6.44876C77.3988 5.92132 76.6834 5.625 75.9375 5.625H14.0625C13.3166 5.625 12.6012 5.92132 12.0738 6.44876C11.5463 6.97621 11.25 7.69158 11.25 8.4375C11.25 9.18342 11.5463 9.89879 12.0738 10.4262C12.6012 10.9537 13.3166 11.25 14.0625 11.25H16.875V78.75H8.4375C7.69158 78.75 6.97621 79.0463 6.44876 79.5738C5.92132 80.1012 5.625 80.8166 5.625 81.5625C5.625 82.3084 5.92132 83.0238 6.44876 83.5512C6.97621 84.0787 7.69158 84.375 8.4375 84.375H81.5625C82.3084 84.375 83.0238 84.0787 83.5512 83.5512C84.0787 83.0238 84.375 82.3084 84.375 81.5625C84.375 80.8166 84.0787 80.1012 83.5512 79.5738C83.0238 79.0463 82.3084 78.75 81.5625 78.75ZM22.5 11.25H67.5V78.75H56.25V64.6875C56.25 63.9416 55.9537 63.2262 55.4262 62.6988C54.8988 62.1713 54.1834 61.875 53.4375 61.875H36.5625C35.8166 61.875 35.1012 62.1713 34.5738 62.6988C34.0463 63.2262 33.75 63.9416 33.75 64.6875V78.75H22.5V11.25ZM50.625 78.75H39.375V67.5H50.625V78.75ZM30.9375 22.5C30.9375 21.7541 31.2338 21.0387 31.7613 20.5113C32.2887 19.9838 33.0041 19.6875 33.75 19.6875H39.375C40.1209 19.6875 40.8363 19.9838 41.3637 20.5113C41.8912 21.0387 42.1875 21.7541 42.1875 22.5C42.1875 23.2459 41.8912 23.9613 41.3637 24.4887C40.8363 25.0162 40.1209 25.3125 39.375 25.3125H33.75C33.0041 25.3125 32.2887 25.0162 31.7613 24.4887C31.2338 23.9613 30.9375 23.2459 30.9375 22.5ZM47.8125 22.5C47.8125 21.7541 48.1088 21.0387 48.6363 20.5113C49.1637 19.9838 49.8791 19.6875 50.625 19.6875H56.25C56.9959 19.6875 57.7113 19.9838 58.2387 20.5113C58.7662 21.0387 59.0625 21.7541 59.0625 22.5C59.0625 23.2459 58.7662 23.9613 58.2387 24.4887C57.7113 25.0162 56.9959 25.3125 56.25 25.3125H50.625C49.8791 25.3125 49.1637 25.0162 48.6363 24.4887C48.1088 23.9613 47.8125 23.2459 47.8125 22.5ZM30.9375 36.5625C30.9375 35.8166 31.2338 35.1012 31.7613 34.5738C32.2887 34.0463 33.0041 33.75 33.75 33.75H39.375C40.1209 33.75 40.8363 34.0463 41.3637 34.5738C41.8912 35.1012 42.1875 35.8166 42.1875 36.5625C42.1875 37.3084 41.8912 38.0238 41.3637 38.5512C40.8363 39.0787 40.1209 39.375 39.375 39.375H33.75C33.0041 39.375 32.2887 39.0787 31.7613 38.5512C31.2338 38.0238 30.9375 37.3084 30.9375 36.5625ZM47.8125 36.5625C47.8125 35.8166 48.1088 35.1012 48.6363 34.5738C49.1637 34.0463 49.8791 33.75 50.625 33.75H56.25C56.9959 33.75 57.7113 34.0463 58.2387 34.5738C58.7662 35.1012 59.0625 35.8166 59.0625 36.5625C59.0625 37.3084 58.7662 38.0238 58.2387 38.5512C57.7113 39.0787 56.9959 39.375 56.25 39.375H50.625C49.8791 39.375 49.1637 39.0787 48.6363 38.5512C48.1088 38.0238 47.8125 37.3084 47.8125 36.5625ZM30.9375 50.625C30.9375 49.8791 31.2338 49.1637 31.7613 48.6363C32.2887 48.1088 33.0041 47.8125 33.75 47.8125H39.375C40.1209 47.8125 40.8363 48.1088 41.3637 48.6363C41.8912 49.1637 42.1875 49.8791 42.1875 50.625C42.1875 51.3709 41.8912 52.0863 41.3637 52.6137C40.8363 53.1412 40.1209 53.4375 39.375 53.4375H33.75C33.0041 53.4375 32.2887 53.1412 31.7613 52.6137C31.2338 52.0863 30.9375 51.3709 30.9375 50.625ZM47.8125 50.625C47.8125 49.8791 48.1088 49.1637 48.6363 48.6363C49.1637 48.1088 49.8791 47.8125 50.625 47.8125H56.25C56.9959 47.8125 57.7113 48.1088 58.2387 48.6363C58.7662 49.1637 59.0625 49.8791 59.0625 50.625C59.0625 51.3709 58.7662 52.0863 58.2387 52.6137C57.7113 53.1412 56.9959 53.4375 56.25 53.4375H50.625C49.8791 53.4375 49.1637 53.1412 48.6363 52.6137C48.1088 52.0863 47.8125 51.3709 47.8125 50.625Z" fill="#313C72"/>
</svg>
