<svg width="569" height="286" viewBox="0 0 569 286" fill="none" xmlns="http://www.w3.org/2000/svg">
<g opacity="0.3">
<path d="M181.218 103.282C181.218 46.2408 227.459 0 284.5 0C341.541 0 387.782 46.2408 387.782 103.282V286H181.218V103.282Z" fill="#E391BE"/>
<path d="M181.218 169.282C181.218 112.241 227.459 66 284.5 66C341.541 66 387.782 112.241 387.782 169.282V286H181.218V169.282Z" fill="#51509D"/>
<path d="M181.218 270.282C181.218 213.241 227.459 167 284.5 167C341.541 167 387.782 213.241 387.782 270.282V286H181.218V270.282Z" fill="#EB726C"/>
<path d="M0 0H181.218V143H0V0Z" fill="#E84536"/>
<path d="M387.782 143H569V286H387.782V143Z" fill="#E84536"/>
<ellipse cx="92.51" cy="215" rx="88.7082" ry="70" stroke="#51509D" stroke-width="5"/>
<ellipse cx="92.51" cy="215" rx="71.3388" ry="56.2937" stroke="#51509D" stroke-width="5"/>
<ellipse cx="93.1304" cy="215.49" rx="53.349" ry="42.0979" stroke="#51509D" stroke-width="5"/>
<ellipse cx="92.7973" cy="214.583" rx="34.4058" ry="27.4849" stroke="#51509D" stroke-width="5"/>
<ellipse cx="92.51" cy="215" rx="14.2678" ry="11.2587" stroke="#51509D" stroke-width="5"/>
<ellipse cx="450.511" cy="142.5" rx="28.5134" ry="22.5" fill="#E391BE"/>
<path d="M387.782 0H479.025V143H387.782V0Z" fill="#EB726C"/>
<path d="M479.025 0H569V143H479.025V0Z" fill="#51509D"/>
</g>
</svg>
